<svg xmlns="http://www.w3.org/2000/svg" width="1026" height="90" viewBox="0 0 1026 90" fill="none">
<defs><linearGradient id="g" gradientUnits="userSpaceOnUse" x1="0" y1="0" x2="1026" y2="0">
<stop offset="0" stop-color="#4F8CFF"/><stop offset="0.5" stop-color="#A06CFF"/><stop offset="1" stop-color="#FF5F9E"/>
</linearGradient></defs><rect x="0" y="0" width="18" height="18" rx="3" fill="url(#g)"/><rect x="18" y="0" width="18" height="18" rx="3" fill="url(#g)"/><rect x="36" y="0" width="18" height="18" rx="3" fill="url(#g)"/><rect x="54" y="0" width="18" height="18" rx="3" fill="url(#g)"/><rect x="72" y="0" width="18" height="18" rx="3" fill="url(#g)"/><rect x="36" y="18" width="18" height="18" rx="3" fill="url(#g)"/><rect x="36" y="36" width="18" height="18" rx="3" fill="url(#g)"/><rect x="36" y="54" width="18" height="18" rx="3" fill="url(#g)"/><rect x="36" y="72" width="18" height="18" rx="3" fill="url(#g)"/><rect x="108" y="0" width="18" height="18" rx="3" fill="url(#g)"/><rect x="126" y="0" width="18" height="18" rx="3" fill="url(#g)"/><rect x="144" y="0" width="18" height="18" rx="3" fill="url(#g)"/><rect x="162" y="0" width="18" height="18" rx="3" fill="url(#g)"/><rect x="108" y="18" width="18" height="18" rx="3" fill="url(#g)"/><rect x="180" y="18" width="18" height="18" rx="3" fill="url(#g)"/><rect x="108" y="36" width="18" height="18" rx="3" fill="url(#g)"/><rect x="126" y="36" width="18" height="18" rx="3" fill="url(#g)"/><rect x="144" y="36" width="18" height="18" rx="3" fill="url(#g)"/><rect x="162" y="36" width="18" height="18" rx="3" fill="url(#g)"/><rect x="108" y="54" width="18" height="18" rx="3" fill="url(#g)"/><rect x="162" y="54" width="18" height="18" rx="3" fill="url(#g)"/><rect x="108" y="72" width="18" height="18" rx="3" fill="url(#g)"/><rect x="180" y="72" width="18" height="18" rx="3" fill="url(#g)"/><rect x="234" y="0" width="18" height="18" rx="3" fill="url(#g)"/><rect x="252" y="0" width="18" height="18" rx="3" fill="url(#g)"/><rect x="270" y="0" width="18" height="18" rx="3" fill="url(#g)"/><rect x="216" y="18" width="18" height="18" rx="3" fill="url(#g)"/><rect x="288" y="18" width="18" height="18" rx="3" fill="url(#g)"/><rect x="216" y="36" width="18" height="18" rx="3" fill="url(#g)"/><rect x="234" y="36" width="18" height="18" rx="3" fill="url(#g)"/><rect x="252" y="36" width="18" height="18" rx="3" fill="url(#g)"/><rect x="270" y="36" width="18" height="18" rx="3" fill="url(#g)"/><rect x="288" y="36" width="18" height="18" rx="3" fill="url(#g)"/><rect x="216" y="54" width="18" height="18" rx="3" fill="url(#g)"/><rect x="288" y="54" width="18" height="18" rx="3" fill="url(#g)"/><rect x="216" y="72" width="18" height="18" rx="3" fill="url(#g)"/><rect x="288" y="72" width="18" height="18" rx="3" fill="url(#g)"/><rect x="324" y="0" width="18" height="18" rx="3" fill="url(#g)"/><rect x="342" y="0" width="18" height="18" rx="3" fill="url(#g)"/><rect x="360" y="0" width="18" height="18" rx="3" fill="url(#g)"/><rect x="342" y="18" width="18" height="18" rx="3" fill="url(#g)"/><rect x="342" y="36" width="18" height="18" rx="3" fill="url(#g)"/><rect x="342" y="54" width="18" height="18" rx="3" fill="url(#g)"/><rect x="324" y="72" width="18" height="18" rx="3" fill="url(#g)"/><rect x="342" y="72" width="18" height="18" rx="3" fill="url(#g)"/><rect x="360" y="72" width="18" height="18" rx="3" fill="url(#g)"/><rect x="396" y="0" width="18" height="18" rx="3" fill="url(#g)"/><rect x="468" y="0" width="18" height="18" rx="3" fill="url(#g)"/><rect x="396" y="18" width="18" height="18" rx="3" fill="url(#g)"/><rect x="414" y="18" width="18" height="18" rx="3" fill="url(#g)"/><rect x="468" y="18" width="18" height="18" rx="3" fill="url(#g)"/><rect x="396" y="36" width="18" height="18" rx="3" fill="url(#g)"/><rect x="432" y="36" width="18" height="18" rx="3" fill="url(#g)"/><rect x="468" y="36" width="18" height="18" rx="3" fill="url(#g)"/><rect x="396" y="54" width="18" height="18" rx="3" fill="url(#g)"/><rect x="450" y="54" width="18" height="18" rx="3" fill="url(#g)"/><rect x="468" y="54" width="18" height="18" rx="3" fill="url(#g)"/><rect x="396" y="72" width="18" height="18" rx="3" fill="url(#g)"/><rect x="468" y="72" width="18" height="18" rx="3" fill="url(#g)"/><rect x="504" y="0" width="18" height="18" rx="3" fill="url(#g)"/><rect x="522" y="0" width="18" height="18" rx="3" fill="url(#g)"/><rect x="540" y="0" width="18" height="18" rx="3" fill="url(#g)"/><rect x="558" y="0" width="18" height="18" rx="3" fill="url(#g)"/><rect x="576" y="0" width="18" height="18" rx="3" fill="url(#g)"/><rect x="540" y="18" width="18" height="18" rx="3" fill="url(#g)"/><rect x="540" y="36" width="18" height="18" rx="3" fill="url(#g)"/><rect x="540" y="54" width="18" height="18" rx="3" fill="url(#g)"/><rect x="540" y="72" width="18" height="18" rx="3" fill="url(#g)"/><rect x="612" y="0" width="18" height="18" rx="3" fill="url(#g)"/><rect x="630" y="0" width="18" height="18" rx="3" fill="url(#g)"/><rect x="648" y="0" width="18" height="18" rx="3" fill="url(#g)"/><rect x="666" y="0" width="18" height="18" rx="3" fill="url(#g)"/><rect x="612" y="18" width="18" height="18" rx="3" fill="url(#g)"/><rect x="684" y="18" width="18" height="18" rx="3" fill="url(#g)"/><rect x="612" y="36" width="18" height="18" rx="3" fill="url(#g)"/><rect x="630" y="36" width="18" height="18" rx="3" fill="url(#g)"/><rect x="648" y="36" width="18" height="18" rx="3" fill="url(#g)"/><rect x="666" y="36" width="18" height="18" rx="3" fill="url(#g)"/><rect x="612" y="54" width="18" height="18" rx="3" fill="url(#g)"/><rect x="666" y="54" width="18" height="18" rx="3" fill="url(#g)"/><rect x="612" y="72" width="18" height="18" rx="3" fill="url(#g)"/><rect x="684" y="72" width="18" height="18" rx="3" fill="url(#g)"/><rect x="738" y="0" width="18" height="18" rx="3" fill="url(#g)"/><rect x="756" y="0" width="18" height="18" rx="3" fill="url(#g)"/><rect x="774" y="0" width="18" height="18" rx="3" fill="url(#g)"/><rect x="720" y="18" width="18" height="18" rx="3" fill="url(#g)"/><rect x="792" y="18" width="18" height="18" rx="3" fill="url(#g)"/><rect x="720" y="36" width="18" height="18" rx="3" fill="url(#g)"/><rect x="738" y="36" width="18" height="18" rx="3" fill="url(#g)"/><rect x="756" y="36" width="18" height="18" rx="3" fill="url(#g)"/><rect x="774" y="36" width="18" height="18" rx="3" fill="url(#g)"/><rect x="792" y="36" width="18" height="18" rx="3" fill="url(#g)"/><rect x="720" y="54" width="18" height="18" rx="3" fill="url(#g)"/><rect x="792" y="54" width="18" height="18" rx="3" fill="url(#g)"/><rect x="720" y="72" width="18" height="18" rx="3" fill="url(#g)"/><rect x="792" y="72" width="18" height="18" rx="3" fill="url(#g)"/><rect x="846" y="0" width="18" height="18" rx="3" fill="url(#g)"/><rect x="864" y="0" width="18" height="18" rx="3" fill="url(#g)"/><rect x="882" y="0" width="18" height="18" rx="3" fill="url(#g)"/><rect x="900" y="0" width="18" height="18" rx="3" fill="url(#g)"/><rect x="828" y="18" width="18" height="18" rx="3" fill="url(#g)"/><rect x="828" y="36" width="18" height="18" rx="3" fill="url(#g)"/><rect x="828" y="54" width="18" height="18" rx="3" fill="url(#g)"/><rect x="846" y="72" width="18" height="18" rx="3" fill="url(#g)"/><rect x="864" y="72" width="18" height="18" rx="3" fill="url(#g)"/><rect x="882" y="72" width="18" height="18" rx="3" fill="url(#g)"/><rect x="900" y="72" width="18" height="18" rx="3" fill="url(#g)"/><rect x="936" y="0" width="18" height="18" rx="3" fill="url(#g)"/><rect x="1008" y="0" width="18" height="18" rx="3" fill="url(#g)"/><rect x="936" y="18" width="18" height="18" rx="3" fill="url(#g)"/><rect x="990" y="18" width="18" height="18" rx="3" fill="url(#g)"/><rect x="936" y="36" width="18" height="18" rx="3" fill="url(#g)"/><rect x="954" y="36" width="18" height="18" rx="3" fill="url(#g)"/><rect x="972" y="36" width="18" height="18" rx="3" fill="url(#g)"/><rect x="936" y="54" width="18" height="18" rx="3" fill="url(#g)"/><rect x="990" y="54" width="18" height="18" rx="3" fill="url(#g)"/><rect x="936" y="72" width="18" height="18" rx="3" fill="url(#g)"/><rect x="1008" y="72" width="18" height="18" rx="3" fill="url(#g)"/></svg>